<svg width="33px" height="26px" viewBox="0 0 33 26" version="1.1" xmlns="http://www.w3.org/2000/svg" xmlns:xlink="http://www.w3.org/1999/xlink">
            <path d="M27.0833333,6.11782299 L25.0833333,8.41855981 L25.0833333,8.25 L2,8.25 L2,24 L25.0833333,24 L25.0833333,19.0883314 L27.0833333,16.7875946 L27.0833333,25 C27.0833333,25.5522847 26.6356181,26 26.0833333,26 L1,26 C0.44771525,26 -6.09000716e-13,25.5522847 -6.09068351e-13,25 L-6.09290396e-13,4.25 C-6.09358031e-13,3.69771525 0.44771525,3.25 1,3.25 L3,3.25 L3,4.41666667 C3,5.52123617 3.8954305,6.41666667 5,6.41666667 L6.25,6.41666667 C7.3545695,6.41666667 8.25,5.52123617 8.25,4.41666667 L8.25,3.25 L19,3.25 L19,4.41666667 C19,5.52123617 19.8954305,6.41666667 21,6.41666667 L22.25,6.41666667 C23.3545695,6.41666667 24.25,5.52123617 24.25,4.41666667 L24.25,3.25 L26.0833333,3.25 C26.6356181,3.25 27.0833333,3.69771525 27.0833333,4.25 L27.0833333,6.11782299 Z M5,-7.54951657e-14 L6.25,-7.54951657e-14 C6.80228475,-7.55966187e-14 7.25,0.44771525 7.25,1 L7.25,4.41666667 C7.25,4.96895142 6.80228475,5.41666667 6.25,5.41666667 L5,5.41666667 C4.44771525,5.41666667 4,4.96895142 4,4.41666667 L4,1 C4,0.44771525 4.44771525,-7.53937126e-14 5,-7.54951657e-14 Z M21,-7.54951657e-14 L22.25,-7.54951657e-14 C22.8022847,-7.55966187e-14 23.25,0.44771525 23.25,1 L23.25,4.41666667 C23.25,4.96895142 22.8022847,5.41666667 22.25,5.41666667 L21,5.41666667 C20.4477153,5.41666667 20,4.96895142 20,4.41666667 L20,1 C20,0.44771525 20.4477153,-7.53937126e-14 21,-7.54951657e-14 Z M30.1991402,11.1724128 L26.9407854,8.33996821 L28.680347,6.33883146 C29.0426784,5.92201687 29.674301,5.87784951 30.0911156,6.24018091 L31.8400513,7.76050748 C32.2568658,8.12283888 32.3010332,8.7544615 31.9387018,9.17127609 L30.1991402,11.1724128 Z M29.600235,11.8613744 L22.8656389,19.608641 C22.7388492,19.7544959 22.5725119,19.8604866 22.386749,19.9137914 L20.4819276,20.4603812 C19.9510664,20.6127122 19.3972296,20.3058528 19.2448985,19.7749915 C19.2110409,19.6570002 19.1991967,19.5337835 19.2099582,19.4115032 L19.3947931,17.3112846 C19.4132915,17.1010937 19.4978026,16.9021404 19.6362332,16.7428942 L26.3418802,9.02892979 L29.600235,11.8613744 Z" id="Combined-Shape" fill-rule="nonzero" fill="#6D6D72"></path>
</svg>