<svg width="28px" height="28px" viewBox="0 0 28 28" version="1.1" xmlns="http://www.w3.org/2000/svg" xmlns:xlink="http://www.w3.org/1999/xlink">
    <!-- Generator: Sketch 52.6 (67491) - http://www.bohemiancoding.com/sketch -->
    <title>Combined Shape</title>
    <desc>Created with Sketch.</desc>
    <g id="New_Web-страница-мастера" stroke="none" stroke-width="1" fill="none" fill-rule="evenodd">
        <path d="M14,10 C12.8954305,10 12,9.1045695 12,8 C12,6.8954305 12.8954305,6 14,6 C15.1045695,6 16,6.8954305 16,8 C16,9.1045695 15.1045695,10 14,10 Z M13,18 L13,14 L11.5,14 C11.2238576,14 11,13.7761424 11,13.5 L11,11.5 C11,11.2238576 11.2238576,11 11.5,11 L15.5,11 C15.7761424,11 16,11.2238576 16,11.5 L16,14 L16,18 L17.5,18 C17.7761424,18 18,18.2238576 18,18.5 L18,20.5 C18,20.7761424 17.7761424,21 17.5,21 L11.5,21 C11.2238576,21 11,20.7761424 11,20.5 L11,18.5 C11,18.2238576 11.2238576,18 11.5,18 L13,18 Z M14,28 C6.2680135,28 0,21.7319865 0,14 C0,6.2680135 6.2680135,0 14,0 C21.7319865,0 28,6.2680135 28,14 C28,21.7319865 21.7319865,28 14,28 Z M14,26 C20.627417,26 26,20.627417 26,14 C26,7.372583 20.627417,2 14,2 C7.372583,2 2,7.372583 2,14 C2,20.627417 7.372583,26 14,26 Z" id="Combined-Shape" fill="#6D6D72" fill-rule="nonzero"></path>
    </g>
</svg>