<svg xmlns="http://www.w3.org/2000/svg" width="30" height="25" viewBox="0 0 30 25">
    <path fill="#6D6D72" fill-rule="nonzero" d="M28.68 7.852a1.374 1.374 0 0 0-1.057-.498h-8.679l-.09-5.965C18.854.622 18.238 0 17.477 0H14.15c-.551 0-1.05.33-1.266.84L9.111 9.722H8.26c0-.766-.615-1.389-1.377-1.389H1.377C.615 8.333 0 8.956 0 9.723V23.61C0 24.378.615 25 1.377 25h5.506c.762 0 1.377-.622 1.377-1.389v-.725l4.996 2.015c.16.066.336.099.51.099H24.78c.665 0 1.235-.48 1.354-1.14L28.978 8.99a1.404 1.404 0 0 0-.297-1.139zM6 23H2V10.212h4V23zm18.211 0h-9.99L8 20.485V11.84h1.484c.594 0 1.131-.357 1.364-.909L14.665 2h2.24v6c0 .828.663 1.5 1.484 1.5h8.364L24.21 23z"/>
</svg>